<svg width="122" height="144" viewBox="0 0 122 144" fill="none" xmlns="http://www.w3.org/2000/svg">
<path d="M118.222 128.959C118.222 128.959 120.48 120.792 119.597 117.853C118.889 115.506 112.546 101.179 108.783 91.9998C107.645 88.8459 106.789 86.0819 106.762 84.6393C106.673 80.0788 112.644 68.4715 111.318 60.7168C109.974 52.9711 96.0868 42.8107 97.9594 41.2114C99.8319 39.6076 117.303 40.3916 118.67 38.5369C120.045 36.6822 122.415 34.5229 120.816 31.723C119.216 28.9231 103.703 21.5582 102.896 20.7607C102.094 19.9588 100.894 6.06674 91.5397 7.40622C94.474 25.9798 90.8767 32.7937 74.9687 38.6713C72.6974 40.9516 73.3425 49.5529 74.3639 53.3967C78.1046 73.9951 48.5599 64.8786 39.2238 65.0175C29.6638 64.4754 24.6239 63.3554 15.8882 69.13C9.45061 73.3724 4.64372 70.4829 1.28381 67.683C-4.59825 76.9205 11.6905 76.4591 10.8035 79.0171C8.18281 84.1152 9.72836 94.0784 10.5213 95.6822C11.5024 97.6444 11.8518 100.637 11.5472 101.632C10.3466 105.502 0.862707 114.793 0.862707 119.632C0.862707 124.474 1.54813 136.27 1.54813 136.27C1.54813 136.27 0.826868 143.106 2.26939 143.106C3.70742 143.106 11.5338 142.837 13.4019 142.837C15.27 142.837 12.4656 136.637 8.6308 136.243C8.6308 134.769 9.50885 120.241 9.50885 120.241L20.7847 106.689C20.7847 106.689 22.0838 119.986 23.8803 122.629C25.6812 125.267 31.9485 137.238 31.9485 137.238C31.9485 137.238 31.5543 142.255 32.737 142.255C33.9197 142.255 40.4289 142.085 42.7898 142.085C45.1462 142.085 42.2612 135.602 38.619 135.992C37.2392 133.828 34.1392 121.845 33.2208 119.202C32.3024 116.558 32.056 107.348 32.1815 103.401C32.2979 99.4453 36.2626 106.322 54.863 106.201C73.4545 106.08 79.5023 103.401 79.5023 103.401C79.5023 103.401 83.5521 134.523 83.8343 136.776C84.2106 139.231 83.4311 141.888 84.6989 141.888C85.9712 141.888 93.5108 141.941 95.6881 141.941C97.8698 141.941 96.1092 134.756 91.0245 134.765C90.0345 132.372 89.2505 117.616 89.2505 117.616L97.368 102.711C97.368 102.711 109.912 115.461 111.681 118.807C113.455 122.149 112.617 131.154 112.617 131.154C112.617 131.154 110.946 133.116 110.463 134.402C111.677 136.355 114.741 138.689 117.438 141.395C120.981 140.602 121.241 135.965 120.395 133.322C119.548 130.657 118.222 128.959 118.222 128.959Z" fill="white"/>
<path d="M72.582 29.8369C82.6886 24.3894 75.5477 12.8447 73.4153 14.1797C74.5755 18.7313 73.9394 25.9394 67.2733 25.4914C60.5894 25.039 60.3654 11.7292 71.4979 8.78596C82.6259 5.85164 91.8499 27.2744 69.6746 34.487C84.1938 35.5577 91.7738 28.8737 90.2596 11.3216C88.7454 -6.23059 52.1224 -2.66461 51.5042 17.1141C50.868 36.8927 68.3978 31.7095 72.582 29.8369Z" fill="white"/>
</svg>
