<svg width="176" height="136" viewBox="0 0 176 136" fill="none" xmlns="http://www.w3.org/2000/svg">
<g filter="url(#filter0_d)">
<path d="M168 83.0797C168 83.0797 156.556 56.871 147.308 41.5005C148.034 33.3626 148.54 16.4446 141.486 9.35419C138.907 6.75385 135.501 5.65897 131.606 6.18009C125.11 7.05916 120.315 9.5858 117.388 13.7074C115.498 16.3393 114.746 19.145 114.467 21.4874C106.355 19.6766 99.9279 19.145 99.9279 19.145C99.9279 19.145 99.4857 1.12153 97.0749 0.0266534C95.8063 -0.547106 86.5156 8.23826 78.4145 17.1289L78.4303 17.0921C78.4303 17.0921 78.4093 17.1289 78.4093 17.1342C76.1458 19.6292 73.9718 22.1085 72.1032 24.4193C69.8134 26.4775 66.8709 28.8199 62.8599 31.3518C36.7722 57.0341 32.4243 90.8544 29.3133 99.5818C26.2024 108.315 8 119.2 8 119.2L26.4287 119.342C26.4287 119.342 42.8783 85.9485 46.6051 70.0516C49.4581 77.8369 29.7502 119.2 29.7502 119.2C29.7502 119.2 40.4622 119.527 41.557 119.2C42.6519 118.869 55.7063 73.6732 55.4115 60.2714C59.1067 72.5783 47.8158 119.348 47.8158 119.348C47.8158 119.348 64.4864 119.348 67.4447 119.348C57.3539 111.452 61.9966 97.6132 60.9017 74.5838C60.1753 59.3713 65.476 44.3956 69.1607 35.9472C75.093 36.7999 86.9999 34.4522 86.9999 34.4522C86.9999 34.4522 86.2629 40.6846 87.2736 48.7331C84.868 48.5909 80.2042 48.7752 75.9984 51.7703C71.8979 54.7233 69.3554 59.5082 68.4764 65.9932C67.95 69.8727 69.0449 73.2942 71.6505 75.8735C76.7248 80.9215 86.8209 82.1111 95.143 82.1111C100.733 82.1111 105.529 81.5689 107.45 81.3426C124.989 91.7756 152.724 100.414 152.724 100.414L168 83.0797ZM75.3668 72.1414C73.9245 70.7096 73.3928 68.9673 73.7086 66.6933C74.3824 61.7295 76.1774 58.1448 79.0357 56.0761C83.0046 53.2073 87.8947 54.0653 87.9368 54.0759L88.0474 53.4758C89.6476 61.261 93.0586 69.8674 100.159 76.1209C100.365 76.2946 100.602 76.4525 100.807 76.642C92.2269 77.1368 79.9884 76.742 75.3668 72.1414ZM138.975 31.3413C133.601 27.3513 126.373 24.6299 119.604 22.7612C119.73 21.0347 120.204 18.7817 121.662 16.7604C123.736 13.8758 127.31 12.0598 132.311 11.386C134.59 11.0755 136.322 11.6071 137.743 13.0494C141.681 17.0026 142.533 26.5512 142.391 34.6101C141.27 33.3573 140.144 32.2098 138.975 31.3413Z" fill="white"/>
</g>
<defs>
<filter id="filter0_d" x="0" y="0" width="176" height="135.348" filterUnits="userSpaceOnUse" color-interpolation-filters="sRGB">
<feFlood flood-opacity="0" result="BackgroundImageFix"/>
<feColorMatrix in="SourceAlpha" type="matrix" values="0 0 0 0 0 0 0 0 0 0 0 0 0 0 0 0 0 0 127 0"/>
<feOffset dy="8"/>
<feGaussianBlur stdDeviation="4"/>
<feColorMatrix type="matrix" values="0 0 0 0 0 0 0 0 0 0 0 0 0 0 0 0 0 0 0.25 0"/>
<feBlend mode="normal" in2="BackgroundImageFix" result="effect1_dropShadow"/>
<feBlend mode="normal" in="SourceGraphic" in2="effect1_dropShadow" result="shape"/>
</filter>
</defs>
</svg>
