<svg width="176" height="178" viewBox="0 0 176 178" fill="none" xmlns="http://www.w3.org/2000/svg">
<g filter="url(#filter0_d)">
<path d="M136.19 111.082C139.008 110.885 164.981 110.166 167.951 96.0841C168.189 94.9709 167.556 92.117 166.084 93.9133C148.485 104.474 132.572 89.6478 132.572 89.6478C132.572 89.6478 160.467 63.8266 156.075 39.564C151.683 15.2913 114.25 -6.13272 103.148 1.60906C120.19 10.9043 129.844 33.3655 129.844 33.3655C129.844 33.3655 116.835 35.6881 103.148 23.2962C98.2397 50.9186 131.357 52.7301 136.979 53.5043C140.698 54.0153 129.136 74.994 125.053 79.042C124.567 79.5177 124.319 80.0237 124.233 80.555C119.35 77.7264 104.297 69.7367 88.0135 69.7367C71.7355 69.7367 56.6618 77.7264 51.784 80.555C51.6879 80.0287 51.445 79.5177 50.9694 79.042C46.8657 74.994 35.3036 54.0153 39.0329 53.5043C44.6444 52.7352 77.7569 50.9186 72.8538 23.2962C59.1767 35.6881 46.1624 33.3655 46.1624 33.3655C46.1624 33.3655 55.8168 10.9093 72.8538 1.60906C61.7573 -6.13272 24.3184 15.2913 19.9314 39.564C15.5444 63.8317 43.4249 89.6478 43.4249 89.6478C43.4249 89.6478 27.5062 104.474 9.91769 93.9133C8.44524 92.117 7.8178 94.9709 8.0455 96.0841C11.0106 110.166 37.0038 110.885 39.8121 111.082C42.8481 111.299 47.2958 115.995 45.7475 118.06C44.2952 119.998 19.7037 119.653 9.61409 115.57C8.93605 115.292 7.28144 115.231 8.79943 117.179C15.0688 125.847 47.7917 126.156 47.5539 127.35C47.311 128.564 25.8111 149.437 37.2568 161.155C37.9804 161.894 40.2017 162.734 40.5964 160.477C46.2484 141.928 56.5455 130.173 60.978 129.672C64.9906 129.227 87.6593 130.841 88.0135 130.831C88.3576 130.856 88.6207 130.821 88.6308 130.785C93.3822 130.446 111.036 129.227 115.049 129.672C119.477 130.173 129.774 141.928 135.415 160.477C135.82 162.719 138.052 161.879 138.76 161.155C150.211 149.457 128.706 128.579 128.458 127.35C128.22 126.171 160.943 125.847 167.217 117.179C168.735 115.216 167.081 115.292 166.408 115.57C156.318 119.669 131.727 119.998 130.259 118.06C128.706 115.99 133.159 111.299 136.19 111.082Z" fill="white"/>
</g>
<defs>
<filter id="filter0_d" x="0" y="0" width="176" height="177.941" filterUnits="userSpaceOnUse" color-interpolation-filters="sRGB">
<feFlood flood-opacity="0" result="BackgroundImageFix"/>
<feColorMatrix in="SourceAlpha" type="matrix" values="0 0 0 0 0 0 0 0 0 0 0 0 0 0 0 0 0 0 127 0"/>
<feOffset dy="8"/>
<feGaussianBlur stdDeviation="4"/>
<feColorMatrix type="matrix" values="0 0 0 0 0 0 0 0 0 0 0 0 0 0 0 0 0 0 0.25 0"/>
<feBlend mode="normal" in2="BackgroundImageFix" result="effect1_dropShadow"/>
<feBlend mode="normal" in="SourceGraphic" in2="effect1_dropShadow" result="shape"/>
</filter>
</defs>
</svg>
