<svg width="176" height="181" viewBox="0 0 176 181" fill="none" xmlns="http://www.w3.org/2000/svg">
<g filter="url(#filter0_d)">
<path d="M107.822 155.01C113.445 154.999 115.399 162.875 112.967 162.875C110.547 162.875 102.226 162.896 100.815 162.896C99.4035 162.896 99.6206 159.982 99.8486 157.235C100.077 154.5 95.8538 127.692 94.9853 125.038C94.1277 122.389 89.221 125.173 68.639 125.325C48.046 125.45 43.6061 119.588 43.4758 123.968C43.3402 128.354 40.9248 133.711 41.9506 136.637C42.9711 139.551 44.7405 153.023 46.2657 155.411C50.2985 154.988 52.9147 162.31 50.304 162.31C47.6878 162.31 41.2179 162.424 39.9152 162.424C38.6071 162.424 39.2585 159.043 39.3616 157.11C39.4756 155.183 35.4699 144.518 33.4779 141.581C31.4968 138.656 30.8672 123.518 30.8672 123.518C30.8672 123.518 17.9328 136.843 17.5746 138.965C17.2218 141.088 17.5257 156.6 17.5257 158.239C21.7702 158.673 23.6645 164.579 21.5965 164.579C19.5286 164.579 12.4345 164.747 10.855 164.747C9.25924 164.747 9.83458 158.798 10.2688 157.626C10.6922 156.437 8 143.611 8 138.265C8 132.908 17.9762 117.922 17.9762 113.683C17.9762 109.449 14.5784 100.83 15.0941 91.9717C15.8757 78.7171 24.039 71.9921 37.0168 71.8835C61.3766 71.6664 60.4973 81.2356 84.2166 77.5393C112.495 73.1319 132.062 68.1818 127.438 55.0955C127.438 55.0955 124.93 49.912 125.516 47.1927C126.103 44.4788 127.438 43.073 127.438 43.073C127.438 43.073 92.5103 15.9179 70.2076 10.8701C72.9215 3.88997 105.711 18.4364 105.711 18.4364C105.711 18.4364 98.3451 7.76539 75.2608 0.975264C99.8974 -7.3672 133.267 40.5545 133.267 40.5545C133.267 40.5545 153.334 47.9471 167.902 75.4984C168.678 83.0702 164.716 84.7093 160.781 83.6835C156.851 82.6576 153.773 79.2762 148.97 80.188C144.709 80.9859 127.313 103.761 127.579 107.875C127.85 111.978 132.741 130.183 133.533 132.778C134.527 136.045 131.965 143.4 132.024 145.088C132.079 146.776 133.484 146.966 134.413 149.891C135.335 152.806 135.053 157.941 131.134 158.82C128.149 155.829 125.169 152.86 123.926 151.617C122.683 150.374 125.641 148.306 125.815 147.498C125.972 146.694 126.738 137.532 124.789 133.82C122.819 130.113 113.679 117.873 113.679 117.873C113.679 117.873 105.537 129.467 105.873 135.736C106.351 139.975 107.29 153.723 107.822 155.01Z" fill="white"/>
</g>
<defs>
<filter id="filter0_d" x="0" y="0" width="176" height="180.747" filterUnits="userSpaceOnUse" color-interpolation-filters="sRGB">
<feFlood flood-opacity="0" result="BackgroundImageFix"/>
<feColorMatrix in="SourceAlpha" type="matrix" values="0 0 0 0 0 0 0 0 0 0 0 0 0 0 0 0 0 0 127 0"/>
<feOffset dy="8"/>
<feGaussianBlur stdDeviation="4"/>
<feColorMatrix type="matrix" values="0 0 0 0 0 0 0 0 0 0 0 0 0 0 0 0 0 0 0.25 0"/>
<feBlend mode="normal" in2="BackgroundImageFix" result="effect1_dropShadow"/>
<feBlend mode="normal" in="SourceGraphic" in2="effect1_dropShadow" result="shape"/>
</filter>
</defs>
</svg>
