<svg width="177" height="205" viewBox="0 0 177 205" fill="none" xmlns="http://www.w3.org/2000/svg">
<g filter="url(#filter0_d)">
<path d="M164.088 170.033C164.088 170.033 167.065 159.265 165.901 155.39C164.968 152.295 156.604 133.405 151.643 121.302C150.142 117.144 149.014 113.499 148.979 111.597C148.861 105.584 156.734 90.28 154.986 80.0554C153.214 69.8426 134.903 56.4462 137.372 54.3374C139.841 52.2228 162.877 53.2565 164.679 50.8111C166.492 48.3657 169.617 45.5187 167.508 41.827C165.399 38.1353 144.944 28.4246 143.881 27.3732C142.824 26.3159 141.241 7.99905 128.908 9.76517C132.777 34.2545 128.034 43.2387 107.059 50.9883C104.064 53.9949 104.915 65.3358 106.261 70.4038C111.193 97.563 72.2388 85.5428 59.9292 85.7259C47.3243 85.0112 40.6792 83.5345 29.1612 91.1483C20.6732 96.742 14.3353 92.9321 9.9053 89.2404C2.14979 101.42 23.6266 100.812 22.457 104.184C19.0016 110.906 21.0394 124.043 22.0849 126.158C23.3785 128.745 23.8392 132.69 23.4376 134.002C21.8546 139.105 9.35006 151.356 9.35006 157.735C9.35006 164.12 10.2538 179.673 10.2538 179.673C10.2538 179.673 9.30281 188.686 11.2048 188.686C13.1008 188.686 23.4198 188.332 25.8829 188.332C28.346 188.332 24.6484 180.157 19.5923 179.637C19.5923 177.694 20.75 158.538 20.75 158.538L35.6172 140.67C35.6172 140.67 37.3301 158.202 39.6987 161.687C42.0732 165.166 50.3367 180.948 50.3367 180.948C50.3367 180.948 49.8169 187.564 51.3763 187.564C52.9357 187.564 61.5181 187.34 64.6309 187.34C67.7379 187.34 63.9339 178.793 59.1318 179.306C57.3125 176.453 53.2251 160.653 52.0142 157.168C50.8033 153.683 50.4785 141.539 50.6438 136.335C50.7974 131.119 56.0249 140.186 80.5495 140.027C105.062 139.867 113.036 136.335 113.036 136.335C113.036 136.335 118.376 177.369 118.748 180.34C119.244 183.577 118.217 187.08 119.888 187.08C121.566 187.08 131.507 187.151 134.377 187.151C137.254 187.151 134.933 177.676 128.228 177.688C126.923 174.534 125.889 155.077 125.889 155.077L136.592 135.425C136.592 135.425 153.131 152.236 155.464 156.648C157.803 161.055 156.699 172.927 156.699 172.927C156.699 172.927 154.496 175.514 153.858 177.21C155.458 179.785 159.499 182.862 163.054 186.43C167.727 185.384 168.069 179.271 166.953 175.786C165.836 172.271 164.088 170.033 164.088 170.033Z" fill="url(#paint0_linear)"/>
<path d="M103.912 39.3402C117.238 32.1576 107.822 16.9359 105.011 18.6961C106.54 24.6973 105.702 34.2013 96.9126 33.6106C88.0998 33.014 87.8044 15.4651 102.483 11.5843C117.155 7.71543 129.317 35.9615 100.079 45.4714C119.222 46.8831 129.216 38.0702 127.22 14.9276C125.223 -8.21508 76.9361 -3.51331 76.121 22.565C75.2822 48.6433 98.3952 41.8092 103.912 39.3402Z" fill="url(#paint1_linear)"/>
</g>
<defs>
<filter id="filter0_d" x="0.212585" y="0" width="176" height="204.686" filterUnits="userSpaceOnUse" color-interpolation-filters="sRGB">
<feFlood flood-opacity="0" result="BackgroundImageFix"/>
<feColorMatrix in="SourceAlpha" type="matrix" values="0 0 0 0 0 0 0 0 0 0 0 0 0 0 0 0 0 0 127 0"/>
<feOffset dy="8"/>
<feGaussianBlur stdDeviation="4"/>
<feColorMatrix type="matrix" values="0 0 0 0 0 0 0 0 0 0 0 0 0 0 0 0 0 0 0.25 0"/>
<feBlend mode="normal" in2="BackgroundImageFix" result="effect1_dropShadow"/>
<feBlend mode="normal" in="SourceGraphic" in2="effect1_dropShadow" result="shape"/>
</filter>
<linearGradient id="paint0_linear" x1="88.2126" y1="9.64529" x2="88.2126" y2="188.686" gradientUnits="userSpaceOnUse">
<stop stop-color="#008C49"/>
<stop offset="1" stop-color="#01410F"/>
</linearGradient>
<linearGradient id="paint1_linear" x1="101.785" y1="0" x2="101.785" y2="45.6162" gradientUnits="userSpaceOnUse">
<stop stop-color="#008C49"/>
<stop offset="1" stop-color="#01410F"/>
</linearGradient>
</defs>
</svg>
