<svg width="161" height="189" viewBox="0 0 161 189" fill="none" xmlns="http://www.w3.org/2000/svg">
<path d="M156.088 170.033C156.088 170.033 159.065 159.265 157.901 155.39C156.968 152.295 148.604 133.405 143.643 121.302C142.142 117.144 141.014 113.499 140.979 111.597C140.861 105.584 148.734 90.28 146.986 80.0554C145.214 69.8426 126.903 56.4462 129.372 54.3374C131.841 52.2228 154.877 53.2565 156.679 50.8111C158.492 48.3657 161.617 45.5187 159.508 41.827C157.399 38.1353 136.944 28.4246 135.881 27.3732C134.824 26.3159 133.241 7.99905 120.908 9.76517C124.777 34.2545 120.034 43.2387 99.0588 50.9883C96.0641 53.9949 96.9147 65.3358 98.2614 70.4038C103.193 97.563 64.2388 85.5428 51.9292 85.7259C39.3243 85.0112 32.6792 83.5345 21.1612 91.1483C12.6732 96.742 6.33533 92.9321 1.9053 89.2404C-5.85021 101.42 15.6266 100.812 14.457 104.184C11.0016 110.906 13.0394 124.043 14.0849 126.158C15.3785 128.745 15.8392 132.69 15.4376 134.002C13.8546 139.105 1.35006 151.356 1.35006 157.735C1.35006 164.12 2.25379 179.673 2.25379 179.673C2.25379 179.673 1.30281 188.686 3.20477 188.686C5.10082 188.686 15.4198 188.332 17.8829 188.332C20.346 188.332 16.6484 180.157 11.5923 179.637C11.5923 177.694 12.75 158.538 12.75 158.538L27.6172 140.67C27.6172 140.67 29.3301 158.202 31.6987 161.687C34.0732 165.166 42.3367 180.948 42.3367 180.948C42.3367 180.948 41.8169 187.564 43.3763 187.564C44.9357 187.564 53.5181 187.34 56.6309 187.34C59.7379 187.34 55.9339 178.793 51.1318 179.306C49.3125 176.453 45.2251 160.653 44.0142 157.168C42.8033 153.683 42.4785 141.539 42.6438 136.335C42.7974 131.119 48.0249 140.186 72.5495 140.027C97.0623 139.867 105.036 136.335 105.036 136.335C105.036 136.335 110.376 177.369 110.748 180.34C111.244 183.577 110.217 187.08 111.888 187.08C113.566 187.08 123.507 187.151 126.377 187.151C129.254 187.151 126.933 177.676 120.228 177.688C118.923 174.534 117.889 155.077 117.889 155.077L128.592 135.425C128.592 135.425 145.131 152.236 147.464 156.648C149.803 161.055 148.699 172.927 148.699 172.927C148.699 172.927 146.496 175.514 145.858 177.21C147.458 179.785 151.499 182.862 155.054 186.43C159.727 185.384 160.069 179.271 158.953 175.786C157.836 172.271 156.088 170.033 156.088 170.033Z" fill="url(#paint0_linear)"/>
<path d="M95.912 39.3402C109.238 32.1576 99.8222 16.9359 97.0107 18.6961C98.5405 24.6973 97.7017 34.2013 88.9126 33.6106C80.0998 33.014 79.8044 15.4651 94.4826 11.5843C109.155 7.71543 121.317 35.9615 92.0786 45.4714C111.222 46.8831 121.216 38.0702 119.22 14.9276C117.223 -8.21508 68.9361 -3.51331 68.121 22.565C67.2822 48.6433 90.3952 41.8092 95.912 39.3402Z" fill="url(#paint1_linear)"/>
<defs>
<linearGradient id="paint0_linear" x1="80.2126" y1="9.64529" x2="80.2126" y2="188.686" gradientUnits="userSpaceOnUse">
<stop stop-color="#008C49"/>
<stop offset="1" stop-color="#01410F"/>
</linearGradient>
<linearGradient id="paint1_linear" x1="93.7848" y1="0" x2="93.7848" y2="45.6162" gradientUnits="userSpaceOnUse">
<stop stop-color="#008C49"/>
<stop offset="1" stop-color="#01410F"/>
</linearGradient>
</defs>
</svg>
