<svg width="176" height="175" viewBox="0 0 176 175" fill="none" xmlns="http://www.w3.org/2000/svg">
<g filter="url(#filter0_d)">
<path d="M161.884 100.421C169.25 91.4186 179.483 28.4022 128.33 7.12396C77.1838 -14.1543 52.632 17.7631 53.0379 30.8574C35.8516 36.9921 32.1656 56.2276 32.1656 56.2276C32.1656 56.2276 7.2013 68.5035 8.01969 83.2346C8.83808 97.9657 26.8428 98.7841 26.8428 98.7841L32.3031 106.287L33.3899 98.7841C33.3899 98.7841 60.2921 86.3707 61.523 97.2259C62.7539 108.068 37.9009 111.878 37.9009 111.878L32.853 108.199L34.3916 115.067C34.3916 115.067 28.8986 116.795 31.3537 122.105C36.2641 130.289 52.632 119.237 52.632 119.237C52.632 119.237 39.9567 167.077 76.3589 156.478C53.8497 145.02 74.3096 127.421 74.3096 127.421C74.3096 127.421 78.814 173.251 123.413 145.426C88.2223 149.112 96.2884 131.376 100.092 127.421C103.89 123.467 123.413 103.164 123.413 103.164C123.413 103.164 133.646 118.419 108.682 137.124C141.418 145.852 143.055 86.1088 143.055 86.1088C143.055 86.1088 150.833 114.753 130.366 133.982C177.015 123.755 153.687 65.2365 153.687 65.2365C153.687 65.2365 162.29 68.091 161.884 100.421ZM38.6865 54.5908C37.9009 51.625 40.1531 49.268 42.5035 48.8621C44.854 48.4561 53.4176 50.9833 55.899 52.3124C58.3804 53.6415 39.4722 57.5567 38.6865 54.5908Z" fill="white"/>
</g>
<defs>
<filter id="filter0_d" x="0" y="0" width="176" height="174.011" filterUnits="userSpaceOnUse" color-interpolation-filters="sRGB">
<feFlood flood-opacity="0" result="BackgroundImageFix"/>
<feColorMatrix in="SourceAlpha" type="matrix" values="0 0 0 0 0 0 0 0 0 0 0 0 0 0 0 0 0 0 127 0"/>
<feOffset dy="8"/>
<feGaussianBlur stdDeviation="4"/>
<feColorMatrix type="matrix" values="0 0 0 0 0 0 0 0 0 0 0 0 0 0 0 0 0 0 0.25 0"/>
<feBlend mode="normal" in2="BackgroundImageFix" result="effect1_dropShadow"/>
<feBlend mode="normal" in="SourceGraphic" in2="effect1_dropShadow" result="shape"/>
</filter>
</defs>
</svg>
