<svg width="176" height="162" viewBox="0 0 176 162" fill="none" xmlns="http://www.w3.org/2000/svg">
<g filter="url(#filter0_d)">
<path d="M159.355 97.5952L142.82 46.0501H138.63V43.2301C146.825 41.2101 146.965 33.1301 146.965 33.1301C146.965 33.1301 143.86 36.7751 138.63 38.1901V35.9601H135.36V38.7351C135.225 38.7401 135.1 38.7751 134.96 38.7801C127.51 38.9601 124.15 26.6001 114.775 26.6001C106.045 26.6001 96.295 31.7951 89.99 32.5151V18.45C94.45 17.755 97.86 13.945 97.86 9.29502C97.87 4.16501 93.7 0 88.565 0C83.435 0 79.27 4.16501 79.27 9.29502C79.27 14.195 83.08 18.17 87.895 18.53V32.4101C81.59 31.4151 72.235 26.6001 63.815 26.6001C54.44 26.6001 51.09 38.9601 43.635 38.7801C43.03 38.7601 42.475 38.6651 41.905 38.5901V35.9601H38.635V37.8251C34.2 36.2151 31.635 33.1351 31.635 33.1351C31.635 33.1351 31.775 40.2901 38.635 42.8051V46.0501H34.45L17.625 97.6003H8C8 97.6003 14.905 110.795 39.635 110.795C64.365 110.795 71.27 97.6003 71.27 97.6003H62.625L46.1 46.0551H41.905V43.5751C42.565 43.6451 43.255 43.6851 44 43.6851C56.185 43.6851 58 35.9601 64.73 35.9601C70.785 35.9601 77.88 43.4801 86.625 45.0001C87 45.1051 88.835 44.9801 88.285 45.1151L88 74.0002L82.445 85.2502L82.635 119.14H67.365V125.135L55.09 145.32H124.905L109.905 124.86V119.13H96.545V85.5502L90.92 73.7302L90.915 45.0451C91.42 45.0401 91.4 45.1501 91.98 44.9951C100.725 43.4751 107.82 35.9551 113.875 35.9551C120.61 35.9551 122.42 43.6801 134.605 43.6801C134.885 43.6801 135.115 43.6501 135.365 43.6401V46.0401H131.185L114.36 97.5853H104.73C104.73 97.5853 111.635 110.78 136.365 110.78C161.095 110.78 168 97.5952 168 97.5952H159.355ZM38.635 97.5952H21.07L36.82 49.3301H38.635V97.5952ZM43.715 49.3251L59.195 97.5853H41.905V49.3251H43.715ZM135.365 97.5952H117.795L133.545 49.3301H135.36L135.365 97.5952ZM138.635 97.5952V49.3251H140.44L155.92 97.5853L138.635 97.5952Z" fill="white"/>
</g>
<defs>
<filter id="filter0_d" x="0" y="0" width="176" height="161.32" filterUnits="userSpaceOnUse" color-interpolation-filters="sRGB">
<feFlood flood-opacity="0" result="BackgroundImageFix"/>
<feColorMatrix in="SourceAlpha" type="matrix" values="0 0 0 0 0 0 0 0 0 0 0 0 0 0 0 0 0 0 127 0"/>
<feOffset dy="8"/>
<feGaussianBlur stdDeviation="4"/>
<feColorMatrix type="matrix" values="0 0 0 0 0 0 0 0 0 0 0 0 0 0 0 0 0 0 0.25 0"/>
<feBlend mode="normal" in2="BackgroundImageFix" result="effect1_dropShadow"/>
<feBlend mode="normal" in="SourceGraphic" in2="effect1_dropShadow" result="shape"/>
</filter>
</defs>
</svg>
