<svg width="176" height="180" viewBox="0 0 176 180" fill="none" xmlns="http://www.w3.org/2000/svg">
<g filter="url(#filter0_d)">
<path d="M83.6771 74.9554C83.6771 74.9554 84.4718 76.555 85.2105 76.7333C90.5695 77.9967 114.446 83.4271 121.313 79.1327C124.981 76.6925 111.542 65.2103 111.542 65.2103C111.542 65.2103 127.406 72.5357 130.111 69.8562C139.932 54.0438 114.619 28.0329 108.185 21.8944C106.57 20.0758 105.378 21.4411 105.378 21.4411L75.343 42.2508L83.6771 74.9554ZM111.42 45.4245C114.054 45.4245 116.183 47.5589 116.183 50.1875C116.183 52.8212 114.054 54.9557 111.42 54.9557C108.791 54.9557 106.657 52.8212 106.657 50.1875C106.662 47.5589 108.797 45.4245 111.42 45.4245Z" fill="white"/>
<path d="M75.975 73.5647C79.2659 73.7481 78.3183 70.0956 78.3183 70.0956L70.7535 40.0603L102.872 19.0366C102.872 19.0366 105.012 17.6204 102.979 16.3418C97.8647 11.9812 82.8878 -0.397707 77.8446 0.00982774C71.7367 0.498869 73.2038 16.6169 68.8075 15.6388C22.8886 17.8293 6.59227 97.0489 8.72674 99.6418C10.8612 102.24 12.6034 104.069 16.5361 101.114C20.5452 109.82 11.2738 129.55 8.18166 137.619C7.37678 140.059 9.42464 139.417 10.8357 138.21C17.9268 131.124 22.9497 128.607 25.7922 128.882C28.6297 129.163 35.1859 131.649 38.9913 133.773C40.8099 135.113 42.9189 134.741 40.9933 131.995C11.3146 69.5199 62.0271 72.1281 75.975 73.5647Z" fill="white"/>
<path d="M92.3224 88.0424C92.3224 88.0424 91.5379 86.4479 90.789 86.2594C85.4401 84.996 61.5637 79.5707 54.6917 83.8549C51.029 86.2951 64.4572 97.7722 64.4572 97.7722C64.4572 97.7722 48.5888 90.457 45.8991 93.1416C36.0673 108.954 61.3854 134.965 67.8194 141.103C69.4342 142.917 70.6263 141.557 70.6263 141.557L100.662 120.742L92.3224 88.0424ZM64.5795 117.573C61.9509 117.573 59.8164 115.439 59.8164 112.805C59.8164 110.171 61.9509 108.032 64.5795 108.032C67.2132 108.032 69.3425 110.171 69.3425 112.805C69.3425 115.439 67.2132 117.573 64.5795 117.573Z" fill="white"/>
<path d="M165.174 24.7879C158.083 31.8739 153.055 34.3904 150.212 34.1153C147.365 33.8402 140.819 31.3492 137.018 29.2249C135.195 27.8851 133.091 28.257 135.006 31.0028C164.675 93.4829 113.962 90.8747 100.014 89.433C96.7234 89.2547 97.676 92.9124 97.676 92.9124L105.236 122.948L73.1221 143.971C73.1221 143.971 70.9825 145.388 73.0151 146.666C78.1297 151.017 93.1117 163.406 98.1549 163.003C104.248 162.499 102.786 146.381 107.182 147.374C153.101 145.174 169.397 65.9692 167.257 63.3661C165.118 60.7732 163.376 58.9444 159.448 61.899C155.439 53.193 164.71 33.4582 167.818 25.3941C168.623 22.9438 166.58 23.5958 165.174 24.7879Z" fill="white"/>
</g>
<defs>
<filter id="filter0_d" x="0" y="0" width="176" height="179.013" filterUnits="userSpaceOnUse" color-interpolation-filters="sRGB">
<feFlood flood-opacity="0" result="BackgroundImageFix"/>
<feColorMatrix in="SourceAlpha" type="matrix" values="0 0 0 0 0 0 0 0 0 0 0 0 0 0 0 0 0 0 127 0"/>
<feOffset dy="8"/>
<feGaussianBlur stdDeviation="4"/>
<feColorMatrix type="matrix" values="0 0 0 0 0 0 0 0 0 0 0 0 0 0 0 0 0 0 0.25 0"/>
<feBlend mode="normal" in2="BackgroundImageFix" result="effect1_dropShadow"/>
<feBlend mode="normal" in="SourceGraphic" in2="effect1_dropShadow" result="shape"/>
</filter>
</defs>
</svg>
