<svg width="176" height="165" viewBox="0 0 176 165" fill="none" xmlns="http://www.w3.org/2000/svg">
<g filter="url(#filter0_d)">
<path d="M147.543 47.9645C131.742 46.8894 135.307 64.136 137.082 70.7266C138.852 77.3072 121.506 63.2509 117.275 68.0364C114.61 60.5807 76.4416 72.1418 68.7959 62.2458C67.1057 59.1355 68.7959 53.405 68.7959 53.405C68.7959 53.405 80.1469 49.7447 79.8619 43.7941C81.9221 46.5394 96.0334 49.7797 97.3135 47.3344C98.5937 44.8942 97.3135 43.104 97.3135 43.104C97.3135 43.104 83.1122 33.2081 78.8368 26.4175C86.5775 20.962 84.4623 18.1867 83.9073 14.4013C81.9071 4.72044 68.2208 6.73063 68.2208 6.73063C68.2208 6.73063 76.6966 13.8513 74.7914 15.7465C73.1513 17.3766 68.4958 15.3564 66.2156 12.2411C65.6506 12.2711 65.1855 13.5163 64.6055 13.8013C60.3751 15.8765 62.8203 23.7572 62.7953 25.9924C57.8798 25.8824 47.9739 37.3435 41.2983 37.3435C34.6227 37.3435 21.9415 30.8679 21.9415 30.8679C21.9415 30.8679 22.9416 18.5217 24.9468 14.6264C26.9469 10.741 40.0732 2.39522 40.0732 2.39522L39.7031 0C39.7031 0 23.7266 9.6209 21.8315 15.5215C19.9413 21.422 19.0462 29.6528 19.0462 29.6528C19.0462 29.6528 14.7108 26.4175 13.9357 28.8627C13.1607 31.3129 18.1611 35.0933 18.1611 35.0933C18.1611 35.0933 13.1607 44.4392 15.8259 52.6749C18.4962 60.9057 24.7217 68.0264 24.7217 68.0264L25.2518 64.6111C25.2518 64.6111 19.6013 58.6705 18.3811 52.1099C17.161 45.5543 20.9414 36.2034 20.9414 36.2034C20.9414 36.2034 35.1827 46.0993 48.794 42.654C48.779 44.7742 49.314 72.2468 38.068 75.3171C36.0478 73.7919 31.3074 68.1164 29.8622 68.7264C28.4221 69.3465 18.7762 85.208 12.5506 85.758C15.5509 88.3183 15.4259 88.3633 16.0109 89.2634C17.8211 86.5981 30.8423 75.3171 30.8423 75.3171C30.8423 75.3171 31.8974 80.6876 34.0676 84.2629C36.5378 88.3233 40.9233 90.6985 40.7432 91.6436C40.4132 93.3937 27.397 91.6436 27.397 91.6436C27.397 91.6436 13.5557 110.92 12.9506 113.276C12.3356 115.646 12.7056 121.986 12.7056 121.986H17.6011L19.3812 114.756C19.3812 114.756 28.6321 96.614 31.6224 98.5142C53.3144 103.07 96.5885 98.4092 98.8137 97.8442C97.1485 106.075 104.149 110.415 104.599 112.085C105.044 113.751 103.924 116.646 103.039 117.866C102.144 119.086 84.3723 119.311 82.5672 120.756C80.762 122.201 77.3467 126.437 76.2216 128.207C78.3268 129.322 79.2318 129.767 80.562 130.492C81.117 127.927 88.3477 124.542 88.3477 124.542L106.589 123.207C106.589 123.207 110.485 115.531 112.37 117.201C116.04 120.531 95.3584 143.238 95.3584 143.238C95.3584 143.238 99.2537 143.288 101.144 143.168C102.589 140.158 120.301 124.547 120.631 119.431C120.951 114.321 114.915 111.295 115.935 103.625C116.93 95.949 130.952 87.3832 121.941 74.842C125.946 72.5868 128.726 81.9827 135.957 82.0627C143.188 82.1477 144.858 76.1671 144.858 73.5969C144.858 71.0267 139.177 56.7853 144.858 57.7904C146.138 58.1904 150.259 68.2114 153.644 69.7965C160.519 73.0268 165.1 70.9166 168 68.6614C158.334 69.0265 163.335 49.0396 147.543 47.9645Z" fill="white"/>
<path d="M72.5562 132.417L79.3719 135.818L80.1869 131.312L75.7115 129.087L72.5562 132.417Z" fill="white"/>
<path d="M94.803 144.429L93.2228 148.834L102.339 148.789L100.794 144.404L94.803 144.429Z" fill="white"/>
<path d="M12.4752 123.207L11.085 127.612L19.0908 127.562L17.7306 123.182L12.4752 123.207Z" fill="white"/>
<path d="M15.6407 89.9534L11.9554 86.5731L8 88.8983L13.6105 94.0638L15.6407 89.9534Z" fill="white"/>
</g>
<defs>
<filter id="filter0_d" x="0" y="0" width="176" height="164.834" filterUnits="userSpaceOnUse" color-interpolation-filters="sRGB">
<feFlood flood-opacity="0" result="BackgroundImageFix"/>
<feColorMatrix in="SourceAlpha" type="matrix" values="0 0 0 0 0 0 0 0 0 0 0 0 0 0 0 0 0 0 127 0"/>
<feOffset dy="8"/>
<feGaussianBlur stdDeviation="4"/>
<feColorMatrix type="matrix" values="0 0 0 0 0 0 0 0 0 0 0 0 0 0 0 0 0 0 0.25 0"/>
<feBlend mode="normal" in2="BackgroundImageFix" result="effect1_dropShadow"/>
<feBlend mode="normal" in="SourceGraphic" in2="effect1_dropShadow" result="shape"/>
</filter>
</defs>
</svg>
