<svg width="146" height="246" viewBox="0 0 146 246" fill="none" xmlns="http://www.w3.org/2000/svg">
<g filter="url(#filter0_d)">
<path d="M49.1452 112.726C49.404 105.043 45.5733 97.6836 37.3515 97.2165C22.762 97.6549 8.56777 119.92 8 124.721C9.02773 125.44 30.7395 104.253 34.8001 104.317C38.8607 104.346 45.753 106.861 49.1452 112.726Z" fill="white"/>
<path d="M38.02 123.953C42.2315 124.046 51.1074 136.86 50.4318 133.231C49.7419 129.609 48.2757 115.12 38.0344 116.162C27.7858 117.211 14.8349 141.439 15.338 145.779C17.4007 144.816 33.8084 123.859 38.02 123.953Z" fill="white"/>
<path d="M38.3417 141.597C29.8755 142.668 20.4319 160.355 21.7974 164.696C24.1619 163.079 35.7257 148.216 41.8417 147.879C47.9578 147.541 55.1448 154.778 54.9507 152.205C54.7638 149.618 46.8007 140.519 38.3417 141.597Z" fill="white"/>
<path d="M95.8877 112.719C99.28 106.862 106.172 104.339 110.218 104.296C114.272 104.253 136.005 125.411 137.019 124.714C136.451 119.899 122.249 97.6338 107.667 97.1954C99.4524 97.6769 95.6074 105.029 95.8877 112.719Z" fill="white"/>
<path d="M105.843 116.154C95.5942 115.112 94.1208 129.601 93.4453 133.223C92.7481 136.853 101.646 124.038 105.864 123.945C110.076 123.844 126.462 144.816 128.539 145.772C129.042 141.424 116.084 117.204 105.843 116.154Z" fill="white"/>
<path d="M104.225 141.59C95.7517 140.512 87.8029 149.618 87.6089 152.198C87.4148 154.778 94.6018 147.556 100.711 147.872C106.834 148.202 118.383 163.065 120.755 164.689C122.135 160.356 112.677 142.676 104.225 141.59Z" fill="white"/>
<path d="M50.8205 80.9321C50.8205 80.9321 54.0403 74.3201 55.9807 72.4946C49.146 69.3036 45.4159 59.6587 45.4159 59.6587C45.4159 59.6587 73.0425 35.6328 51.8267 16.8174C54.7302 30.2067 47.723 39.6719 41.4344 37.9542C35.1386 36.2509 33.4209 4.11093 45.7537 0C11.5152 0 25.0266 42.2807 28.9722 50.3876C32.9179 58.4945 50.8205 80.9321 50.8205 80.9321Z" fill="white"/>
<path d="M97.6293 59.6587C97.6293 59.6587 93.8921 69.3036 87.0501 72.4946C88.9978 74.3201 92.2175 80.9321 92.2175 80.9321C92.2175 80.9321 110.12 58.4945 114.066 50.3876C118.026 42.2807 131.53 0 97.2843 0C109.631 4.11093 107.907 36.2509 101.618 37.9542C95.3295 39.6647 88.3078 30.2067 91.2329 16.8174C69.9955 35.6328 97.6293 59.6587 97.6293 59.6587Z" fill="white"/>
<path d="M90.189 221.925C86.8758 221.687 81.0688 212.761 80.6016 202.57C80.1345 192.365 78.1868 163.509 82.8799 147.137C82.8799 147.137 91.1808 108.608 90.5843 101.012C82.7721 92.2722 82.7721 92.2722 82.7721 92.2722C82.7721 92.2722 90.7711 94.3205 90.613 86.9826C90.4549 79.6448 83.3039 70.2515 76.9794 70.3808C77.9928 68.7709 87.6017 58.1774 76.9794 55.971C79.7895 62.1733 73.7812 68.3828 71.1652 67.9804C68.5491 67.5779 64.9629 62.7698 63.7626 55.971C55.7564 60.5778 64.237 67.3192 65.969 68.9794C59.163 70.2514 52.1342 80.4569 52.8888 85.919C53.6362 91.3954 62.1456 91.7045 62.1456 91.7045C62.1456 91.7045 59.6301 94.6152 52.8888 100.544C53.2985 105.755 58.8611 138.039 59.817 145.103C59.8242 145.147 59.8529 145.19 59.8601 145.233C69.7781 208.931 79.3655 222.787 85.0647 227.66C92.9272 234.466 115.947 226.035 96.9016 207.457C99.5967 215.521 95.9888 222.255 90.189 221.925Z" fill="white"/>
</g>
<defs>
<filter id="filter0_d" x="0" y="0" width="145.019" height="246" filterUnits="userSpaceOnUse" color-interpolation-filters="sRGB">
<feFlood flood-opacity="0" result="BackgroundImageFix"/>
<feColorMatrix in="SourceAlpha" type="matrix" values="0 0 0 0 0 0 0 0 0 0 0 0 0 0 0 0 0 0 127 0"/>
<feOffset dy="8"/>
<feGaussianBlur stdDeviation="4"/>
<feColorMatrix type="matrix" values="0 0 0 0 0 0 0 0 0 0 0 0 0 0 0 0 0 0 0.25 0"/>
<feBlend mode="normal" in2="BackgroundImageFix" result="effect1_dropShadow"/>
<feBlend mode="normal" in="SourceGraphic" in2="effect1_dropShadow" result="shape"/>
</filter>
</defs>
</svg>
