<svg width="176" height="221" viewBox="0 0 176 221" fill="none" xmlns="http://www.w3.org/2000/svg">
<g filter="url(#filter0_d)">
<path d="M148.542 3.6525C147.945 2.7759 146.514 3.24507 146.663 4.29522C153.129 49.7738 137.111 49.0017 136.338 48.9384C136.313 48.9363 136.297 48.9353 136.271 48.9343L88.4076 47.1237C88.399 47.1233 88.3921 47.1163 88.3921 47.1076V47.1076C88.3921 47.0986 88.3846 47.0913 88.3756 47.0916L88.0078 47.1039L87.6273 47.0916C87.6182 47.0913 87.6107 47.0986 87.6107 47.1076V47.1076C87.6107 47.1162 87.6039 47.1233 87.5953 47.1237L39.7254 48.9343C39.6998 48.9353 39.6837 48.9363 39.6581 48.9384C38.8851 49.0017 22.8678 49.7737 29.3334 4.29571C29.4827 3.24553 28.0518 2.77639 27.4546 3.65304C-26.5659 82.9511 48.9341 70.6684 50.0762 73.6278C51.2355 76.6318 38.297 94.1757 39.2322 104.559C40.1609 114.941 58.2749 120.482 60.7024 127.399C68.6641 150.945 43.3892 173.786 66.9155 179.704C67.5475 179.859 68.2027 180.011 68.8654 180.158C69.4046 180.278 69.7468 180.808 69.6583 181.353C69.4842 182.425 69.3943 183.521 69.3943 184.643C69.3943 195.839 78.5025 204.954 89.7052 204.954C100.902 204.954 110.016 195.839 110.016 184.643C110.016 183.255 109.869 181.909 109.594 180.603C109.48 180.061 109.827 179.509 110.357 179.35C131.7 172.945 107.501 150.508 115.326 127.406C117.754 120.488 135.868 114.948 136.803 104.565C137.738 94.1821 124.799 76.6383 125.959 73.6342C127.063 70.6685 202.569 82.9511 148.542 3.6525ZM89.686 199.426C81.545 199.426 74.9028 192.809 74.9028 184.656C74.9028 183.842 74.982 183.044 75.1191 182.271C75.2099 181.759 75.7022 181.43 76.2171 181.505C81.2795 182.237 85.8174 182.605 87.5814 182.751C87.5949 182.752 87.6043 182.764 87.6043 182.777V182.777C87.6043 182.792 87.6166 182.804 87.6315 182.803C87.6828 182.801 87.8043 182.794 87.9727 182.781C87.9918 182.78 88.011 182.78 88.0301 182.781C88.1874 182.794 88.3126 182.801 88.3652 182.803C88.38 182.804 88.3921 182.792 88.3921 182.777V182.777C88.3921 182.764 88.4014 182.753 88.415 182.752C90.5511 182.597 96.7367 182.088 102.998 180.994C103.511 180.905 104.014 181.218 104.126 181.726C104.333 182.668 104.469 183.647 104.469 184.656C104.469 192.809 97.8334 199.426 89.686 199.426Z" fill="white"/>
</g>
<defs>
<filter id="filter0_d" x="0" y="3.1933" width="176" height="217.76" filterUnits="userSpaceOnUse" color-interpolation-filters="sRGB">
<feFlood flood-opacity="0" result="BackgroundImageFix"/>
<feColorMatrix in="SourceAlpha" type="matrix" values="0 0 0 0 0 0 0 0 0 0 0 0 0 0 0 0 0 0 127 0"/>
<feOffset dy="8"/>
<feGaussianBlur stdDeviation="4"/>
<feColorMatrix type="matrix" values="0 0 0 0 0 0 0 0 0 0 0 0 0 0 0 0 0 0 0.25 0"/>
<feBlend mode="normal" in2="BackgroundImageFix" result="effect1_dropShadow"/>
<feBlend mode="normal" in="SourceGraphic" in2="effect1_dropShadow" result="shape"/>
</filter>
</defs>
</svg>
