<svg width="176" height="207" viewBox="0 0 176 207" fill="none" xmlns="http://www.w3.org/2000/svg">
<g filter="url(#filter0_d)">
<path d="M98.6867 116.557C92.5653 106.848 88.0825 97.3731 87.0116 84.0828C86.0752 72.4369 92.6999 62.0786 96.0357 58.7545C96.0357 58.7545 104.211 57.1393 106.517 54.2074C114.739 45.751 109.191 44.3698 106.517 43.6208C133.343 39.337 123.547 21.5346 123.547 21.5346C123.547 21.5346 133.981 24.0101 133.905 16.9348C132.167 8.37304 102.596 6.82222 88.8258 45.5871C86.1747 42.8366 77.9114 42.2104 77.5369 40.3904C77.3379 39.4189 77.2794 37.552 77.2677 36.0071C79.0468 35.3984 80.6795 34.4562 82.1192 33.2039C82.7336 33.0634 83.3189 32.8586 83.869 32.6128C83.3481 34.5031 82.3415 36.4928 80.3752 37.0546C91.9508 40.1504 88.896 17.6371 88.264 14.3072C87.6378 10.9948 84.2084 6.11995 83.1257 4.47549C82.0372 2.84858 77.3555 -2.34231 72.6562 1.22753C70.5904 0.103907 66.646 0.355551 64.3285 1.22753C62.0052 2.10535 52.6124 9.25087 55.0528 23.0913C57.4932 36.9376 59.1259 36.5045 59.1259 36.5045L58.4997 33.6779C58.4997 33.6779 63.3863 43.6383 68.0212 39.6296C65.1712 40.3494 65.4521 38.0027 65.4521 38.0027C65.4521 38.0027 67.1142 38.664 68.5596 38.898C68.3431 40.1329 68.1207 41.3267 67.9744 41.947C67.6701 43.2638 63.8252 44.7502 61.2327 45.6866C61.0396 45.3237 60.8816 45.0253 60.8465 45.0663C47.0646 6.30137 17.4993 7.84635 15.7612 16.4139C15.6793 23.4892 26.1137 21.0079 26.1137 21.0079C26.1137 21.0079 16.3055 38.8103 43.1378 43.0999C40.4633 43.8431 34.9154 45.2184 43.1378 53.6807C44.0214 54.8043 45.7712 55.7406 47.5913 56.4605C45.7069 59.6499 42.8042 66.9008 40.7676 66.655C38.0932 66.3272 24.7619 53.5285 22.0055 53.2535C19.2491 52.9667 18.3069 54.9096 11.4482 52.9023C4.58941 50.8833 9.69252 56.8291 11.9983 58.1986C14.304 59.5738 20.8702 56.1561 23.9777 60.1883C25.9616 62.1488 35.6177 74.0404 41.3997 74.2101C47.1758 74.3798 52.5247 62.734 53.8238 62.7106C57.6219 62.8218 66.406 77.856 59.5765 90.7777C48.4867 108.943 59.5531 152.7 57.0191 174.78C55.8721 188.339 70.8596 186.004 77.9875 182.095C89.2588 176.114 89.1067 180.48 100.665 186.244C112.235 191.997 128.761 191.833 125.788 181.124C122.815 170.414 166.157 186.051 168 175.225C165.893 164.919 104.802 126.265 98.6867 116.557ZM68.7528 37.7569C66.3943 36.4694 64.9196 34.9712 64.0593 33.4145C65.5341 34.6611 67.2136 35.5799 69.0337 36.1417C68.9517 36.6098 68.8581 37.1599 68.7528 37.7569Z" fill="white"/>
</g>
<defs>
<filter id="filter0_d" x="0" y="0" width="176" height="206.019" filterUnits="userSpaceOnUse" color-interpolation-filters="sRGB">
<feFlood flood-opacity="0" result="BackgroundImageFix"/>
<feColorMatrix in="SourceAlpha" type="matrix" values="0 0 0 0 0 0 0 0 0 0 0 0 0 0 0 0 0 0 127 0"/>
<feOffset dy="8"/>
<feGaussianBlur stdDeviation="4"/>
<feColorMatrix type="matrix" values="0 0 0 0 0 0 0 0 0 0 0 0 0 0 0 0 0 0 0.25 0"/>
<feBlend mode="normal" in2="BackgroundImageFix" result="effect1_dropShadow"/>
<feBlend mode="normal" in="SourceGraphic" in2="effect1_dropShadow" result="shape"/>
</filter>
</defs>
</svg>
